<svg width="33.000000" height="32.000000" viewBox="0 0 33 32" fill="none" xmlns="http://www.w3.org/2000/svg" xmlns:xlink="http://www.w3.org/1999/xlink">
	<desc>
			Created with Pixso.
	</desc>
	<defs/>
	<path id="cup" d="M31.99 6.45L31.99 4.03L31.99 3.99C31.91 3.14 31.35 2.58 30.54 2.5L30.5 2.5L25.66 2.5L25.66 1.41C25.66 0.64 25.01 0 24.25 0L7.31 0C6.54 0 5.9 0.64 5.9 1.41L5.9 2.5L1.5 2.5L1.46 2.5C0.65 2.54 0.09 3.14 0.01 3.99L0.01 4.03L0.01 6.45C-0.04 7.1 -0.24 13.35 6.46 14.4C7.51 17.34 9.93 19.69 13 20.57L13 24.56L7.67 27.1C7.67 27.1 7.63 27.1 7.63 27.14C6.86 27.59 6.46 28.24 6.46 28.96L6.46 29.77L6.46 29.81C6.54 30.61 7.11 31.14 7.95 31.14L23.64 31.14C24.49 31.14 25.1 30.61 25.14 29.81L25.14 29.77L25.14 28.96C25.14 28.24 24.73 27.59 23.97 27.14L23.93 27.1L18.68 24.6L18.68 20.53C21.63 19.64 24.01 17.35 25.1 14.44C27.36 14.16 29.09 13.31 30.3 11.9C32.16 9.68 31.99 6.86 31.99 6.45ZM6.06 12.83C1.1 11.66 1.46 6.82 1.5 6.58C1.5 6.53 1.5 6.53 1.5 6.49L1.5 4.07C1.5 4.03 1.5 3.99 1.5 3.99L1.54 3.99L5.9 3.99L5.9 11.09C5.9 11.38 5.9 11.61 5.94 11.9C5.94 11.94 5.94 11.98 5.94 11.98C5.97 12.26 6.01 12.5 6.06 12.83ZM23.64 28.92L23.64 29.61L7.91 29.61L7.91 28.92C7.91 28.72 8.15 28.52 8.32 28.44L13.8 25.86L17.75 25.86L23.24 28.44C23.4 28.52 23.64 28.72 23.64 28.92ZM17.15 20.97L17.15 24.36L14.49 24.36L14.49 20.97L17.15 20.97ZM15.78 19.48C11.99 19.48 8.8 16.98 7.75 13.55C7.71 13.35 7.63 13.15 7.59 12.95C7.51 12.59 7.47 12.18 7.43 11.82C7.43 11.78 7.43 11.74 7.43 11.7C7.43 11.5 7.39 11.34 7.39 11.14L7.39 3.27L7.39 1.49L24.13 1.49L24.13 3.51L24.13 11.05C24.13 11.26 24.13 11.42 24.09 11.62C24.09 11.66 24.09 11.7 24.09 11.74C24.09 11.9 24.05 12.1 24.05 12.26L24.05 12.3C24.01 12.5 23.96 12.66 23.93 12.87C23.93 12.91 23.93 12.95 23.89 12.99C23.85 13.15 23.8 13.31 23.77 13.47C22.75 16.94 19.53 19.48 15.78 19.48ZM29.13 10.97C28.28 11.98 27.07 12.63 25.5 12.91L25.5 12.87C25.54 12.58 25.58 12.34 25.62 12.06C25.62 12.02 25.62 11.98 25.62 11.98C25.66 11.69 25.66 11.41 25.66 11.13L25.66 4L30.46 4C30.5 4 30.5 4 30.5 4C30.5 4 30.5 4.04 30.5 4.08L30.5 6.5C30.5 6.54 30.5 6.54 30.5 6.58C30.5 6.62 30.7 9.07 29.13 10.97ZM14.24 15.97C14.12 16.26 13.84 16.46 13.56 16.46C13.47 16.46 13.4 16.46 13.27 16.42C10.81 15.49 10.29 13.27 10.33 12.26L10.33 4.68C10.33 4.28 10.65 3.96 11.05 3.96C11.46 3.96 11.78 4.28 11.78 4.68L11.78 12.31C11.78 12.42 11.7 14.28 13.75 15.05C14.21 15.17 14.41 15.61 14.24 15.97Z" fill="#C19CF6" fill-opacity="1.000000" fill-rule="nonzero"/>
</svg>
