<svg width="31.000000" height="25.000000" viewBox="0 0 31 25" fill="none" xmlns="http://www.w3.org/2000/svg" xmlns:xlink="http://www.w3.org/1999/xlink">
	<desc>
			Created with Pixso.
	</desc>
	<defs/>
	<path id="path" d="M3 24C2.17 24 1.46 23.7 0.87 23.12C0.29 22.53 0 21.82 0 21L0 3C0 2.17 0.29 1.46 0.87 0.87C1.46 0.29 2.17 0 3 0L10 0C10.31 -0.01 10.56 0.11 10.77 0.35L13.8 4L26 4C26.66 4 27 4.33 27 5C27 5.66 26.66 6 26 6L13.33 6C13.02 5.99 12.76 5.87 12.57 5.64L9.53 2L3 2C2.33 2 2 2.33 2 3L2 21C2 21.66 2.33 22 3 22C3.66 22 4 22.33 4 23C4 23.66 3.66 24 3 24Z" fill="#F4FF73" fill-opacity="1.000000" fill-rule="nonzero"/>
	<path id="path" d="M24.38 24L3 24C2.67 24 2.41 23.88 2.2 23.63C2 23.38 1.93 23.1 2 22.79L5 8.79C5.11 8.25 5.44 7.98 6 8L29 8C29.32 7.99 29.58 8.11 29.79 8.36C29.99 8.61 30.06 8.89 30 9.2L27.32 21.63C27.17 22.32 26.82 22.89 26.26 23.33C25.71 23.78 25.08 24 24.38 24ZM4.24 22L24.38 22C24.93 22.01 25.26 21.74 25.38 21.21L27.76 10L6.76 10L4.24 22Z" fill="#F4FF73" fill-opacity="1.000000" fill-rule="nonzero"/>
</svg>
