<svg width="32.000000" height="21.000000" viewBox="0 0 32 21" fill="none" xmlns="http://www.w3.org/2000/svg" xmlns:xlink="http://www.w3.org/1999/xlink">
	<desc>
			Created with Pixso.
	</desc>
	<defs/>
	<path id="path" d="M6.93 16.39L25.06 16.39C25.8 16.39 26.42 16.13 26.94 15.61C27.47 15.09 27.73 14.46 27.73 13.73L27.73 2C27.73 1.26 27.47 0.63 26.94 0.11C26.42 -0.41 25.8 -0.67 25.06 -0.67L6.93 -0.67C6.2 -0.67 5.57 -0.41 5.05 0.11C4.52 0.63 4.26 1.26 4.26 2L4.26 13.73C4.26 14.46 4.52 15.09 5.05 15.61C5.57 16.13 6.2 16.39 6.93 16.39ZM6.39 2C6.39 1.85 6.45 1.73 6.55 1.62C6.66 1.51 6.78 1.46 6.93 1.46L25.06 1.46C25.21 1.46 25.33 1.51 25.44 1.62C25.54 1.73 25.59 1.85 25.59 2L25.59 13.73C25.59 13.87 25.54 14 25.44 14.1C25.33 14.21 25.21 14.26 25.06 14.26L6.93 14.26C6.78 14.26 6.66 14.21 6.55 14.1C6.45 14 6.39 13.87 6.39 13.73L6.39 2Z" fill="#C19CF6" fill-opacity="1.000000" fill-rule="nonzero"/>
	<path id="path" d="M29.33 17.46L2.66 17.46L0 17.46L0 19.06C0 19.51 0.26 19.88 0.78 20.19C1.3 20.51 1.93 20.66 2.66 20.66L29.33 20.66C30.06 20.66 30.69 20.51 31.21 20.19C31.73 19.88 32 19.51 32 19.06L32 17.46L29.33 17.46ZM17.33 19.06L14.66 19.06C14.48 19.06 14.4 18.97 14.4 18.79C14.4 18.62 14.48 18.53 14.66 18.53L17.33 18.53C17.51 18.53 17.6 18.62 17.6 18.79C17.6 18.97 17.51 19.06 17.33 19.06Z" fill="#C19CF6" fill-opacity="1.000000" fill-rule="nonzero"/>
</svg>
