<svg width="15.000000" height="15.000000" viewBox="0 0 15 15" fill="none" xmlns="http://www.w3.org/2000/svg" xmlns:xlink="http://www.w3.org/1999/xlink">
	<desc>
			Created with Pixso.
	</desc>
	<defs>
		<clipPath id="clip19_1">
			<rect id="book_icon-icons.com_73655" width="15.000000" height="14.999969" fill="white" fill-opacity="0"/>
		</clipPath>
	</defs>
	<g clip-path="url(#clip19_1)">
		<path id="path" d="M14.76 3.73C14.64 3.56 14.46 3.43 14.23 3.34C14.24 3.55 14.23 3.72 14.19 3.86L11.48 12.75C11.44 12.9 11.33 13.03 11.17 13.12C11.01 13.21 10.84 13.26 10.66 13.26L2.35 13.26C1.63 13.26 1.2 13.05 1.05 12.63C0.99 12.47 1 12.34 1.06 12.24C1.13 12.15 1.24 12.11 1.4 12.11L9.23 12.11C9.79 12.11 10.18 12 10.39 11.8C10.6 11.59 10.82 11.13 11.03 10.41L13.5 2.25C13.63 1.81 13.58 1.42 13.34 1.08C13.1 0.75 12.76 0.58 12.31 0.58L5.46 0.58C5.38 0.58 5.23 0.6 5 0.66L5.01 0.63C4.84 0.6 4.7 0.58 4.58 0.58C4.46 0.59 4.35 0.62 4.26 0.69C4.16 0.75 4.08 0.82 4.02 0.9C3.96 0.97 3.9 1.07 3.84 1.19C3.78 1.3 3.74 1.41 3.7 1.51C3.66 1.61 3.61 1.71 3.56 1.83C3.51 1.94 3.46 2.03 3.41 2.1C3.38 2.15 3.33 2.21 3.26 2.29C3.19 2.37 3.14 2.44 3.1 2.5C3.06 2.56 3.03 2.61 3.02 2.66C3.01 2.71 3.01 2.79 3.04 2.9C3.06 3 3.07 3.08 3.06 3.13C3.04 3.35 2.96 3.64 2.81 4C2.67 4.35 2.55 4.6 2.43 4.76C2.41 4.79 2.34 4.85 2.23 4.96C2.13 5.06 2.06 5.16 2.04 5.23C2.01 5.26 2.01 5.35 2.03 5.49C2.05 5.62 2.06 5.72 2.05 5.77C2.03 5.98 1.95 6.25 1.83 6.59C1.7 6.92 1.58 7.2 1.45 7.41C1.43 7.45 1.38 7.52 1.3 7.62C1.21 7.72 1.16 7.81 1.14 7.87C1.13 7.92 1.13 8.01 1.15 8.13C1.16 8.25 1.16 8.34 1.14 8.4C1.1 8.62 1.01 8.9 0.87 9.22C0.74 9.54 0.61 9.82 0.47 10.04C0.43 10.1 0.38 10.17 0.32 10.26C0.26 10.34 0.21 10.41 0.17 10.47C0.13 10.53 0.11 10.59 0.1 10.66C0.09 10.69 0.1 10.75 0.13 10.83C0.15 10.91 0.16 10.98 0.15 11.03C0.15 11.11 0.13 11.22 0.12 11.36C0.1 11.5 0.09 11.58 0.09 11.6C-0.04 11.96 -0.04 12.34 0.11 12.75C0.28 13.21 0.57 13.61 1 13.93C1.43 14.25 1.88 14.41 2.34 14.41L10.66 14.41C11.05 14.41 11.41 14.28 11.76 14.02C12.1 13.76 12.33 13.44 12.45 13.05L14.92 4.89C15.06 4.46 15 4.07 14.76 3.73ZM5.18 3.75L5.37 3.17C5.39 3.09 5.44 3.03 5.52 2.97C5.59 2.91 5.67 2.88 5.75 2.88L11.22 2.88C11.31 2.88 11.37 2.91 11.4 2.97C11.44 3.03 11.45 3.09 11.42 3.17L11.23 3.75C11.21 3.83 11.16 3.89 11.08 3.95C11.01 4.01 10.93 4.04 10.85 4.04L5.38 4.04C5.29 4.04 5.23 4.01 5.2 3.95C5.16 3.89 5.15 3.83 5.18 3.75ZM4.43 6.05L4.62 5.48C4.64 5.4 4.69 5.33 4.77 5.27C4.84 5.22 4.92 5.19 5 5.19L10.48 5.19C10.56 5.19 10.62 5.22 10.66 5.27C10.69 5.33 10.7 5.4 10.67 5.48L10.48 6.05C10.46 6.13 10.41 6.2 10.34 6.26C10.26 6.31 10.18 6.34 10.11 6.34L4.63 6.34C4.55 6.34 4.49 6.31 4.45 6.26C4.41 6.2 4.41 6.13 4.43 6.05Z" fill="#C19CF6" fill-opacity="1.000000" fill-rule="nonzero"/>
	</g>
</svg>
