<svg width="20.000000" height="20.000000" viewBox="0 0 20 20" fill="none" xmlns="http://www.w3.org/2000/svg" xmlns:xlink="http://www.w3.org/1999/xlink">
	<desc>
			Created with Pixso.
	</desc>
	<defs/>
	<path id="cross" d="M10.74 10L19.84 0.89C20.05 0.69 20.05 0.35 19.84 0.15C19.64 -0.06 19.3 -0.06 19.1 0.15L10 9.25L0.89 0.15C0.69 -0.06 0.35 -0.06 0.15 0.15C-0.06 0.35 -0.06 0.69 0.15 0.89L9.25 10L0.15 19.1C-0.06 19.3 -0.06 19.64 0.15 19.84C0.25 19.94 0.39 20 0.52 20C0.66 20 0.79 19.94 0.89 19.84L10 10.74L19.1 19.84C19.2 19.94 19.34 20 19.47 20C19.6 20 19.74 19.94 19.84 19.84C20.05 19.64 20.05 19.3 19.84 19.1L10.74 10Z" fill="#353535" fill-opacity="1.000000" fill-rule="nonzero"/>
</svg>
