<svg width="20.000000" height="21.000000" viewBox="0 0 20 21" fill="none" xmlns="http://www.w3.org/2000/svg" xmlns:xlink="http://www.w3.org/1999/xlink">
	<desc>
			Created with Pixso.
	</desc>
	<defs/>
	<path id="paperClip" d="M13.46 -0.09C14.31 -0.09 15.14 0.07 15.92 0.39C16.73 0.72 17.46 1.2 18.08 1.83C18.7 2.45 19.19 3.18 19.52 3.99C19.83 4.77 19.99 5.6 19.99 6.44C19.99 7.29 19.83 8.12 19.52 8.9C19.19 9.71 18.7 10.44 18.08 11.06L9.47 19.63C9.03 20.07 8.51 20.42 7.93 20.65C7.38 20.88 6.79 20.99 6.18 20.99C5.58 20.99 4.99 20.88 4.43 20.65C3.86 20.42 3.34 20.07 2.9 19.63C2.45 19.19 2.11 18.67 1.87 18.09C1.65 17.53 1.53 16.95 1.53 16.34C1.53 15.74 1.65 15.15 1.87 14.59C2.11 14.01 2.45 13.5 2.9 13.05L11.48 4.47C11.75 4.2 12.06 3.99 12.41 3.85C12.75 3.71 13.1 3.65 13.46 3.65C13.83 3.65 14.18 3.71 14.52 3.85C14.86 3.99 15.18 4.2 15.44 4.47C15.71 4.73 15.92 5.04 16.06 5.39C16.19 5.73 16.26 6.08 16.26 6.44C16.26 6.81 16.19 7.16 16.06 7.5C15.92 7.85 15.71 8.16 15.44 8.42L7.52 16.34C7.16 16.71 6.57 16.71 6.2 16.34C5.84 15.98 5.84 15.39 6.2 15.02L14.12 7.11C14.3 6.93 14.4 6.69 14.4 6.44C14.4 6.2 14.3 5.96 14.12 5.79C13.95 5.61 13.71 5.51 13.46 5.51C13.21 5.51 12.98 5.61 12.8 5.79L4.22 14.37C3.69 14.9 3.4 15.6 3.4 16.34C3.4 17.09 3.69 17.78 4.22 18.31C4.74 18.84 5.44 19.13 6.18 19.13C6.93 19.13 7.63 18.84 8.15 18.31L16.76 9.74C17.21 9.3 17.55 8.78 17.79 8.2C18.01 7.64 18.13 7.05 18.13 6.44C18.13 5.84 18.01 5.25 17.79 4.69C17.55 4.11 17.21 3.59 16.76 3.15C16.32 2.7 15.8 2.36 15.22 2.12C14.66 1.89 14.07 1.78 13.46 1.78C12.86 1.78 12.27 1.89 11.71 2.12C11.13 2.36 10.61 2.7 10.16 3.15L1.59 11.72C1.22 12.09 0.63 12.09 0.27 11.72C-0.1 11.36 -0.1 10.77 0.27 10.4L8.84 1.83C9.47 1.2 10.19 0.72 11.01 0.39C11.79 0.07 12.61 -0.09 13.46 -0.09Z" fill="#000000" fill-opacity="0.500000" fill-rule="nonzero"/>
</svg>
