<svg width="19.000000" height="19.000000" viewBox="0 0 19 19" fill="none" xmlns="http://www.w3.org/2000/svg" xmlns:xlink="http://www.w3.org/1999/xlink">
	<desc>
			Created with Pixso.
	</desc>
	<defs/>
	<path id="path" d="M15.5 5.5C15.89 5.11 18.1 3 17.7 2.63L15.37 0.29C15 -0.1 14.35 -0.1 13.96 0.29L12.12 2.12L15.87 5.87L15.5 5.5ZM0 14.25L0 18L3.75 18L14.81 6.93L11.06 3.18L0 14.25Z" fill="#000000" fill-opacity="0" fill-rule="nonzero"/>
	<path id="path" d="M15.5 5.5C15.89 5.11 18.1 3 17.7 2.63L15.37 0.29C15 -0.1 14.35 -0.1 13.96 0.29L12.12 2.12L15.87 5.87M0 18L3.75 18L14.81 6.93L11.06 3.18L0 14.25L0 18Z" stroke="#000000" stroke-opacity="1.000000" stroke-width="1.000000"/>
</svg>
