<svg width="30.000000" height="18.000000" viewBox="0 0 30 18" fill="none" xmlns="http://www.w3.org/2000/svg" xmlns:xlink="http://www.w3.org/1999/xlink">
	<desc>
			Created with Pixso.
	</desc>
	<defs/>
	<path id="path" d="M29.82 8.38C25.11 2.67 20.05 -0.14 14.77 0C6.25 0.24 0.39 8.08 0.14 8.41C0.13 8.43 0.13 8.45 0.12 8.46C0.1 8.5 0.06 8.57 0.05 8.6C0.04 8.61 0.04 8.63 0.03 8.64C0.02 8.68 0.01 8.71 0.01 8.74C0 8.76 0 8.78 0 8.8C0 8.83 0 8.85 0 8.88C0 8.91 0 8.93 0 8.96C0 8.98 0 9 0.01 9.02C0.01 9.05 0.02 9.08 0.03 9.11C0.04 9.13 0.04 9.14 0.05 9.16C0.06 9.19 0.08 9.22 0.09 9.26C0.1 9.27 0.13 9.33 0.14 9.34C0.39 9.68 6.25 17.52 14.77 17.76C14.9 17.76 15.03 17.76 15.16 17.76C20.3 17.76 25.23 14.94 29.82 9.38C29.94 9.23 30 9.05 30 8.88C30 8.7 29.94 8.53 29.82 8.38ZM14.82 16.2C8.2 16.02 3.14 10.52 1.77 8.88C3.14 7.24 8.2 1.74 14.82 1.56C19.44 1.44 23.93 3.9 28.19 8.88C23.93 13.86 19.45 16.33 14.82 16.2Z" fill="#D6D6D3" fill-opacity="1.000000" fill-rule="nonzero"/>
	<path id="path" d="M15.39 3.73C12.55 3.73 10.24 6.04 10.24 8.88C10.24 11.72 12.55 14.03 15.39 14.03C18.22 14.03 20.53 11.72 20.53 8.88C20.53 6.04 18.22 3.73 15.39 3.73ZM15.39 12.46C13.41 12.46 11.8 10.85 11.8 8.88C11.8 6.9 13.41 5.3 15.39 5.3C17.36 5.3 18.97 6.9 18.97 8.88C18.97 10.85 17.36 12.46 15.39 12.46Z" fill="#D6D6D3" fill-opacity="1.000000" fill-rule="nonzero"/>
</svg>
