<svg width="21.000000" height="21.000000" viewBox="0 0 21 21" fill="none" xmlns="http://www.w3.org/2000/svg" xmlns:xlink="http://www.w3.org/1999/xlink">
	<desc>
			Created with Pixso.
	</desc>
	<defs/>
	<path id="path" d="M15.84 8.16C15.84 12.41 12.4 15.84 8.16 15.84C3.91 15.84 0.47 12.41 0.47 8.16C0.47 3.91 3.91 0.46 8.16 0.46C12.4 0.46 15.84 3.91 15.84 8.16Z" fill="#000000" fill-opacity="0" fill-rule="nonzero"/>
	<path id="path" d="M8.16 15.84C3.91 15.84 0.47 12.41 0.47 8.16C0.47 3.91 3.91 0.46 8.16 0.46C12.4 0.46 15.84 3.91 15.84 8.16C15.84 12.41 12.4 15.84 8.16 15.84Z" stroke="#353535" stroke-opacity="1.000000" stroke-width="1.000000" stroke-linejoin="round"/>
	<path id="line" d="M13.45 14.08L13.42 14.08C13.23 13.89 13.23 13.57 13.42 13.38C13.62 13.18 13.93 13.18 14.13 13.38L14.13 13.41L13.45 14.08ZM20.8 20.12L20.83 20.12C21.03 20.32 21.03 20.63 20.83 20.83C20.63 21.03 20.32 21.03 20.12 20.83L20.12 20.8L20.8 20.12Z" fill="#000000" fill-opacity="0" fill-rule="nonzero"/>
	<path id="line" d="M13.78 13.73L20.48 20.48" stroke="#353535" stroke-opacity="1.000000" stroke-width="1.000000" stroke-linejoin="round" stroke-linecap="round"/>
</svg>
