<svg width="21.000000" height="19.000000" viewBox="0 0 21 19" fill="none" xmlns="http://www.w3.org/2000/svg" xmlns:xlink="http://www.w3.org/1999/xlink">
	<desc>
			Created with Pixso.
	</desc>
	<defs/>
	<path id="sendMessage2" d="M0.34 7.89C5.41 5.95 20 0 20 0L17.09 16.82C16.94 17.64 15.98 17.93 15.38 17.41L10.84 13.62L7.64 16.59L8.16 11.61L17.84 2.45L5.93 9.9L6.67 14.14L4.21 10.19L0.49 9C-0.1 8.78 -0.18 8.03 0.34 7.89Z" fill="#000000" fill-opacity="0" fill-rule="nonzero"/>
	<path id="sendMessage2" d="M20 0L17.09 16.82C16.94 17.64 15.98 17.93 15.38 17.41L10.84 13.62L7.64 16.59L8.16 11.61L17.84 2.45L5.93 9.9L6.67 14.14L4.21 10.19L0.49 9C-0.1 8.78 -0.18 8.03 0.34 7.89C5.41 5.95 20 0 20 0Z" stroke="#C19CF6" stroke-opacity="1.000000" stroke-width="1.250000" stroke-linejoin="round"/>
</svg>
