<svg width="19.000000" height="20.000000" viewBox="0 0 19 20" fill="none" xmlns="http://www.w3.org/2000/svg" xmlns:xlink="http://www.w3.org/1999/xlink">
	<desc>
			Created with Pixso.
	</desc>
	<defs/>
	<path id="sendMessage" d="M7.91 11.62L11.57 17.56C11.73 17.82 11.98 17.81 12.08 17.8C12.18 17.79 12.42 17.72 12.51 17.43L17.08 1.98C17.16 1.71 17.02 1.52 16.95 1.46C16.89 1.39 16.7 1.25 16.44 1.33L0.98 5.85C0.69 5.94 0.63 6.18 0.61 6.29C0.6 6.39 0.59 6.64 0.85 6.81L6.85 10.56L12.16 5.2C12.45 4.91 12.92 4.9 13.22 5.2C13.51 5.49 13.51 5.96 13.22 6.26L7.91 11.62ZM12 19.31C11.3 19.31 10.67 18.95 10.29 18.34L6.41 12.05L0.06 8.08C-0.63 7.65 -0.99 6.88 -0.87 6.08C-0.76 5.28 -0.21 4.64 0.56 4.41L16.02 -0.11C16.73 -0.32 17.49 -0.12 18.01 0.4C18.54 0.93 18.73 1.7 18.52 2.41L13.95 17.85C13.72 18.63 13.08 19.18 12.28 19.29C12.18 19.3 12.09 19.31 12 19.31Z" fill="#C19CF6" fill-opacity="1.000000" fill-rule="evenodd"/>
	<path id="sendMessage" d="M11.57 17.56C11.73 17.82 11.98 17.81 12.08 17.8C12.18 17.79 12.42 17.72 12.51 17.43L17.08 1.98C17.16 1.71 17.02 1.52 16.95 1.46C16.89 1.39 16.7 1.25 16.44 1.33L0.98 5.85C0.69 5.94 0.63 6.18 0.61 6.29C0.6 6.39 0.59 6.64 0.85 6.81L6.85 10.56L12.16 5.2C12.45 4.91 12.92 4.9 13.22 5.2C13.51 5.49 13.51 5.96 13.22 6.26L7.91 11.62L11.57 17.56ZM10.29 18.34L6.41 12.05L0.06 8.08C-0.63 7.65 -0.99 6.88 -0.87 6.08C-0.76 5.28 -0.21 4.64 0.56 4.41L16.02 -0.11C16.73 -0.32 17.49 -0.12 18.01 0.4C18.54 0.93 18.73 1.7 18.52 2.41L13.95 17.85C13.72 18.63 13.08 19.18 12.28 19.29C12.18 19.3 12.09 19.31 12 19.31C11.3 19.31 10.67 18.95 10.29 18.34Z" stroke="#000000" stroke-opacity="0" stroke-width="1.000000"/>
</svg>
