<svg width="20.000000" height="15.000000" viewBox="0 0 20 15" fill="none" xmlns="http://www.w3.org/2000/svg" xmlns:xlink="http://www.w3.org/1999/xlink">
	<desc>
			Created with Pixso.
	</desc>
	<defs/>
	<path id="book2" d="M18.31 11.33C18.31 11.53 18.14 11.7 17.93 11.7L12.83 11.7C11.01 11.7 10.36 12.52 10.36 12.52L10.27 12.63L10.23 12.68C10.06 12.92 9.8 12.69 9.8 12.68L9.69 12.54C9.6 12.43 8.93 11.7 7.32 11.7L2.06 11.7C1.85 11.7 1.68 11.53 1.68 11.33L1.68 0.48C1.68 0.28 1.85 0.12 2.06 0.12L6.14 0.12C9.18 0.12 9.47 1.85 9.49 2.35L9.49 9.89C9.49 10.44 9.75 10.54 9.9 10.56L10.11 10.56C10.27 10.54 10.5 10.46 10.5 10.03L10.5 2.25C10.53 1.62 10.77 0.12 12.6 0.12L17.93 0.12C18.14 0.12 18.31 0.28 18.31 0.48L18.31 11.33ZM19.66 2.25L19.64 2.25C19.3 2.25 19.24 1.96 19.24 1.82L19.24 -0.35C19.24 -0.58 19.05 -0.76 18.82 -0.76L12.63 -0.76C11.08 -0.76 10.5 -0.19 10.36 -0.01L10.32 0.05L10.2 0.21C10.03 0.44 9.89 0.34 9.82 0.27L9.59 -0.02L9.47 -0.16C9.27 -0.37 8.77 -0.76 7.76 -0.76L1.17 -0.76C0.94 -0.76 0.75 -0.58 0.75 -0.35L0.75 1.79C0.75 2.16 0.55 2.24 0.43 2.25L0.33 2.25C0.23 2.26 0 2.32 0 2.75L0 12.93C0 13.18 0.2 13.38 0.45 13.38L6.46 13.38C8.38 13.38 9.22 14.11 9.47 14.38L9.61 14.56C9.61 14.56 10 15 10.4 14.56L10.48 14.46L10.59 14.34C10.6 14.33 10.62 14.31 10.66 14.27C10.98 13.96 11.78 13.38 13.34 13.38L19.54 13.38C19.79 13.38 20 13.18 20 12.93L20 2.65C20 2.28 19.73 2.25 19.66 2.25Z" fill="#353535" fill-opacity="1.000000" fill-rule="nonzero"/>
</svg>
