<svg width="21.000000" height="18.000000" viewBox="0 0 21 18" fill="none" xmlns="http://www.w3.org/2000/svg" xmlns:xlink="http://www.w3.org/1999/xlink">
	<desc>
			Created with Pixso.
	</desc>
	<defs/>
	<path id="path" d="M19.33 8.02C19.19 8.01 19.06 7.97 18.94 7.89L9.97 1.49L1 7.89C0.65 8.1 0.36 8.03 0.12 7.7C-0.12 7.37 -0.08 7.07 0.23 6.81L9.59 0.12C9.84 -0.06 10.1 -0.06 10.36 0.12L19.72 6.81C19.98 7 20.06 7.24 19.96 7.55C19.86 7.86 19.65 8.01 19.33 8.02Z" fill="#353535" fill-opacity="1.000000" fill-rule="nonzero"/>
	<path id="path" d="M2.62 4.01C2.18 4.01 1.95 3.78 1.95 3.34L1.95 0.66C1.95 0.22 2.18 0 2.62 0L5.29 0C5.74 0 5.96 0.22 5.96 0.66C5.96 1.11 5.74 1.33 5.29 1.33L3.29 1.33L3.29 3.34C3.29 3.78 3.07 4.01 2.62 4.01Z" fill="#353535" fill-opacity="1.000000" fill-rule="nonzero"/>
	<path id="path" d="M15.99 17.37L12.65 17.37C12.2 17.37 11.98 17.15 11.98 16.7L11.98 12.03L7.97 12.03L7.97 16.7C7.97 17.15 7.75 17.37 7.3 17.37L3.96 17.37C3.4 17.37 2.93 17.18 2.54 16.79C2.15 16.39 1.95 15.92 1.95 15.37L1.95 8.68C1.95 8.24 2.18 8.02 2.62 8.02C3.07 8.02 3.29 8.24 3.29 8.68L3.29 15.37C3.29 15.81 3.51 16.04 3.96 16.04L6.63 16.04L6.63 11.36C6.63 10.91 6.85 10.69 7.3 10.69L12.65 10.69C13.09 10.69 13.32 10.91 13.32 11.36L13.32 16.04L15.99 16.04C16.43 16.04 16.66 15.81 16.66 15.37L16.66 8.68C16.66 8.24 16.88 8.02 17.33 8.02C17.77 8.02 17.99 8.24 17.99 8.68L17.99 15.37C17.99 15.92 17.8 16.39 17.41 16.79C17.02 17.18 16.54 17.37 15.99 17.37Z" fill="#353535" fill-opacity="1.000000" fill-rule="nonzero"/>
</svg>
