<svg width="20.000000" height="20.000000" viewBox="0 0 20 20" fill="none" xmlns="http://www.w3.org/2000/svg" xmlns:xlink="http://www.w3.org/1999/xlink">
	<desc>
			Created with Pixso.
	</desc>
	<defs/>
	<path id="path" d="M3.6 17.79L3.6 13.58C3.6 13.16 3.25 12.82 2.83 12.82C2.4 12.82 2.06 13.16 2.06 13.58L2.06 19.23C2.06 19.51 2.22 19.77 2.47 19.9C2.72 20.04 3.02 20.02 3.26 19.87C3.26 19.87 5.33 18.48 6.07 17.99C6.12 17.96 6.16 17.94 6.22 17.94C7.63 17.94 13.5 17.94 16.67 17.94C18.23 17.94 19.5 16.68 19.5 15.12C19.5 12.85 19.5 9.19 19.5 6.92C19.5 5.36 18.23 4.1 16.67 4.1C15.25 4.1 13.6 4.1 13.6 4.1C13.17 4.1 12.83 4.44 12.83 4.87C12.83 5.29 13.17 5.64 13.6 5.64C13.6 5.64 15.25 5.64 16.67 5.64C17.38 5.64 17.96 6.21 17.96 6.92C17.96 9.19 17.96 12.85 17.96 15.12C17.96 15.83 17.38 16.41 16.67 16.41C13.5 16.41 7.63 16.41 6.22 16.41C5.86 16.41 5.52 16.51 5.22 16.71L3.6 17.79Z" fill="#353535" fill-opacity="1.000000" fill-rule="evenodd"/>
	<path id="path" d="M5.65 0C9.04 0 11.8 2.75 11.8 6.15C11.8 7.26 11.51 8.31 10.98 9.21C10.95 9.26 10.94 9.33 10.95 9.39C11.04 9.91 11.19 10.8 11.19 10.8C11.24 11.05 11.16 11.3 10.98 11.48C10.81 11.65 10.56 11.73 10.31 11.69C10.31 11.69 9.4 11.54 8.88 11.46C8.81 11.45 8.75 11.46 8.7 11.49C7.8 12 6.76 12.3 5.65 12.3C2.25 12.3 -0.51 9.54 -0.51 6.15C-0.51 2.75 2.25 0 5.65 0ZM9.49 10L9.12 9.94C8.71 9.88 8.28 9.95 7.93 10.16C7.26 10.54 6.48 10.76 5.65 10.76C3.1 10.76 1.03 8.7 1.03 6.15C1.03 3.6 3.1 1.53 5.65 1.53C8.2 1.53 10.26 3.6 10.26 6.15C10.26 6.98 10.04 7.76 9.66 8.43C9.44 8.8 9.36 9.23 9.43 9.65L9.49 10Z" fill="#353535" fill-opacity="1.000000" fill-rule="evenodd"/>
	<ellipse id="circle" rx="0.684102" ry="0.684106" transform="matrix(-1 1 0 0 7.79026 6.23901)" fill="#353535" fill-opacity="1.000000"/>
	<ellipse id="circle" rx="0.684102" ry="0.684106" transform="matrix(-1 1 0 0 5.56871 6.23901)" fill="#353535" fill-opacity="1.000000"/>
	<ellipse id="circle" rx="0.684102" ry="0.684106" transform="matrix(-1 1 0 0 3.34617 6.23901)" fill="#353535" fill-opacity="1.000000"/>
</svg>
