<svg width="20.000000" height="20.000000" viewBox="0 0 20 20" fill="none" xmlns="http://www.w3.org/2000/svg" xmlns:xlink="http://www.w3.org/1999/xlink">
	<desc>
			Created with Pixso.
	</desc>
	<defs>
		<clipPath id="clip17_15">
			<rect id="profile" width="20.000000" height="20.000000" fill="white" fill-opacity="0"/>
		</clipPath>
	</defs>
	<g clip-path="url(#clip17_15)">
		<path id="path" d="M10 0.39C9.36 0.39 8.74 0.46 8.12 0.58C7.5 0.7 6.9 0.88 6.32 1.13C5.74 1.37 5.19 1.66 4.66 2.01C4.14 2.36 3.65 2.76 3.21 3.21C2.76 3.65 2.36 4.14 2.01 4.66C1.66 5.19 1.37 5.74 1.13 6.32C0.88 6.9 0.7 7.5 0.58 8.12C0.46 8.74 0.4 9.36 0.4 10C0.4 10.63 0.46 11.25 0.58 11.87C0.7 12.49 0.88 13.09 1.13 13.67C1.37 14.25 1.66 14.8 2.01 15.33C2.36 15.85 2.76 16.34 3.21 16.78C3.65 17.23 4.14 17.63 4.66 17.98C5.19 18.33 5.74 18.62 6.32 18.86C6.9 19.11 7.5 19.29 8.12 19.41C8.74 19.53 9.36 19.59 10 19.59C10.63 19.59 11.25 19.53 11.87 19.41C12.49 19.29 13.09 19.11 13.67 18.86C14.25 18.62 14.8 18.33 15.33 17.98C15.85 17.63 16.34 17.23 16.78 16.78C17.23 16.34 17.63 15.85 17.98 15.33C18.33 14.8 18.62 14.25 18.86 13.67C19.11 13.09 19.29 12.49 19.41 11.87C19.53 11.25 19.6 10.63 19.6 10C19.6 9.36 19.53 8.74 19.41 8.12C19.29 7.5 19.11 6.9 18.86 6.32C18.62 5.74 18.33 5.19 17.98 4.66C17.63 4.14 17.23 3.65 16.78 3.21C16.34 2.76 15.85 2.36 15.33 2.01C14.8 1.66 14.25 1.37 13.67 1.13C13.09 0.88 12.49 0.7 11.87 0.58C11.25 0.46 10.63 0.39 10 0.39ZM10 18.79C9.42 18.79 8.84 18.74 8.28 18.63C7.71 18.51 7.16 18.35 6.63 18.13C6.09 17.9 5.59 17.63 5.11 17.31C4.63 16.99 4.18 16.63 3.77 16.22C3.36 15.81 3 15.36 2.68 14.88C2.36 14.4 2.09 13.9 1.86 13.36C1.64 12.83 1.48 12.28 1.36 11.71C1.25 11.14 1.2 10.57 1.2 10C1.2 9.42 1.25 8.84 1.36 8.28C1.48 7.71 1.64 7.16 1.86 6.63C2.09 6.09 2.36 5.59 2.68 5.11C3 4.63 3.36 4.18 3.77 3.77C4.18 3.36 4.63 3 5.11 2.68C5.59 2.36 6.09 2.09 6.63 1.86C7.16 1.64 7.71 1.48 8.28 1.36C8.84 1.25 9.42 1.19 10 1.19C10.57 1.19 11.15 1.25 11.71 1.36C12.28 1.48 12.83 1.64 13.36 1.86C13.9 2.09 14.4 2.36 14.88 2.68C15.36 3 15.81 3.36 16.22 3.77C16.63 4.18 16.99 4.63 17.31 5.11C17.63 5.59 17.9 6.09 18.13 6.63C18.35 7.16 18.51 7.71 18.63 8.28C18.74 8.84 18.79 9.42 18.79 10C18.79 10.57 18.74 11.14 18.63 11.71C18.51 12.28 18.35 12.83 18.13 13.36C17.9 13.9 17.63 14.4 17.31 14.88C16.99 15.36 16.63 15.81 16.22 16.22C15.81 16.63 15.36 16.99 14.88 17.31C14.4 17.63 13.9 17.9 13.36 18.13C12.83 18.35 12.28 18.51 11.71 18.63C11.15 18.74 10.57 18.79 10 18.79Z" fill="#353535" fill-opacity="1.000000" fill-rule="nonzero"/>
		<path id="path" d="M10 0.39Q9.52 0.39 9.05 0.44Q8.59 0.49 8.12 0.58Q7.66 0.67 7.21 0.81L7.21 0.81L7.21 0.81Q6.76 0.94 6.32 1.13Q5.88 1.31 5.47 1.53L5.47 1.53Q5.05 1.75 4.66 2.01Q4.27 2.28 3.9 2.57L3.9 2.57Q3.54 2.87 3.21 3.21Q2.87 3.54 2.57 3.9Q2.28 4.27 2.01 4.66Q1.75 5.05 1.53 5.47L1.53 5.47Q1.31 5.88 1.13 6.32Q0.94 6.76 0.81 7.21L0.81 7.21L0.81 7.21Q0.67 7.66 0.58 8.12Q0.49 8.59 0.44 9.05L0.44 9.05Q0.4 9.52 0.4 10Q0.4 10.47 0.44 10.94Q0.49 11.4 0.58 11.87Q0.67 12.33 0.81 12.78L0.81 12.78Q0.94 13.23 1.13 13.67C1.37 14.25 1.66 14.8 2.01 15.33C2.36 15.85 2.76 16.34 3.21 16.78C3.65 17.23 4.14 17.63 4.66 17.98Q5.05 18.24 5.47 18.46Q5.88 18.68 6.32 18.86Q6.76 19.04 7.21 19.18Q7.66 19.32 8.12 19.41C8.74 19.53 9.36 19.59 10 19.59C10.63 19.59 11.25 19.53 11.87 19.41C12.49 19.29 13.09 19.11 13.67 18.86C14.25 18.62 14.8 18.33 15.33 17.98C15.85 17.63 16.34 17.23 16.78 16.78C17.23 16.34 17.63 15.85 17.98 15.33C18.33 14.8 18.62 14.25 18.86 13.67Q19.05 13.23 19.18 12.78L19.18 12.78Q19.32 12.33 19.41 11.87C19.53 11.25 19.6 10.63 19.6 10C19.6 9.36 19.53 8.74 19.41 8.12C19.29 7.5 19.11 6.9 18.86 6.32C18.62 5.74 18.33 5.19 17.98 4.66C17.63 4.14 17.23 3.65 16.78 3.21C16.34 2.76 15.85 2.36 15.33 2.01C14.8 1.66 14.25 1.37 13.67 1.13C13.09 0.88 12.49 0.7 11.87 0.58Q11.4 0.49 10.94 0.44L10.94 0.44Q10.47 0.39 10 0.39ZM10 18.79C9.42 18.79 8.84 18.74 8.28 18.63Q7.85 18.54 7.44 18.42L7.44 18.42Q7.03 18.29 6.63 18.13C6.09 17.9 5.59 17.63 5.11 17.31Q4.75 17.07 4.41 16.8L4.41 16.8Q4.08 16.52 3.77 16.22Q3.47 15.91 3.19 15.58L3.19 15.58L3.19 15.58Q2.92 15.24 2.68 14.88C2.36 14.4 2.09 13.9 1.86 13.36C1.64 12.83 1.48 12.28 1.36 11.71Q1.28 11.29 1.24 10.86L1.24 10.86L1.24 10.86Q1.2 10.43 1.2 10Q1.2 9.56 1.24 9.13L1.24 9.13Q1.28 8.7 1.36 8.28Q1.45 7.85 1.57 7.44L1.57 7.44Q1.7 7.03 1.86 6.63Q2.03 6.23 2.23 5.85Q2.44 5.47 2.68 5.11Q2.92 4.75 3.19 4.41L3.19 4.41Q3.47 4.08 3.77 3.77Q4.08 3.47 4.41 3.19Q4.75 2.92 5.11 2.68Q5.47 2.44 5.85 2.23L5.85 2.23Q6.23 2.03 6.63 1.86Q7.03 1.7 7.44 1.57Q7.85 1.45 8.28 1.36Q8.7 1.28 9.13 1.24L9.13 1.24L9.13 1.24Q9.56 1.19 10 1.19Q10.43 1.19 10.86 1.24L10.86 1.24Q11.29 1.28 11.71 1.36C12.28 1.48 12.83 1.64 13.36 1.86C13.9 2.09 14.4 2.36 14.88 2.68Q15.24 2.92 15.58 3.19L15.58 3.19L15.58 3.19Q15.91 3.47 16.22 3.77Q16.52 4.08 16.8 4.41Q17.07 4.75 17.31 5.11C17.63 5.59 17.9 6.09 18.13 6.63Q18.29 7.03 18.42 7.44L18.42 7.44Q18.54 7.85 18.63 8.28C18.74 8.84 18.79 9.42 18.79 10C18.79 10.57 18.74 11.14 18.63 11.71Q18.54 12.14 18.42 12.55L18.42 12.55Q18.29 12.96 18.13 13.36C17.9 13.9 17.63 14.4 17.31 14.88Q17.07 15.24 16.8 15.58L16.8 15.58Q16.52 15.91 16.22 16.22Q15.91 16.52 15.58 16.8Q15.24 17.07 14.88 17.31C14.4 17.63 13.9 17.9 13.36 18.13Q12.96 18.29 12.55 18.42L12.55 18.42Q12.14 18.54 11.71 18.63C11.15 18.74 10.57 18.79 10 18.79Z" fill="#353535" fill-opacity="1.000000" fill-rule="evenodd"/>
		<path id="path" d="M9.99 10.16C9.31 10.16 8.64 10.29 8.01 10.55C7.37 10.82 6.81 11.19 6.32 11.68C5.83 12.17 5.45 12.73 5.19 13.37C4.93 14.01 4.79 14.67 4.79 15.36C4.79 15.63 4.93 15.76 5.19 15.76C5.46 15.76 5.59 15.63 5.59 15.36C5.59 14.78 5.71 14.21 5.93 13.68C6.15 13.14 6.47 12.66 6.88 12.25C7.3 11.84 7.77 11.52 8.31 11.29C8.85 11.07 9.41 10.96 9.99 10.96C10.58 10.96 11.14 11.07 11.68 11.29C12.22 11.52 12.69 11.84 13.11 12.25C13.52 12.66 13.84 13.14 14.06 13.68C14.28 14.21 14.4 14.78 14.4 15.36C14.4 15.63 14.53 15.76 14.8 15.76C15.06 15.76 15.2 15.63 15.2 15.36C15.2 14.67 15.06 14.01 14.8 13.37C14.54 12.73 14.16 12.17 13.67 11.68C13.18 11.19 12.62 10.82 11.98 10.55C11.35 10.29 10.68 10.16 9.99 10.16Z" fill="#353535" fill-opacity="1.000000" fill-rule="nonzero"/>
		<path id="path" d="M14.38 14.96Q14.36 14.73 14.31 14.5L14.31 14.5Q14.23 14.08 14.06 13.68C13.84 13.14 13.52 12.66 13.11 12.25Q12.8 11.94 12.44 11.7Q12.08 11.46 11.68 11.29Q11.27 11.13 10.85 11.04Q10.43 10.96 9.99 10.96Q9.56 10.96 9.14 11.04Q8.72 11.13 8.31 11.29Q7.91 11.46 7.55 11.7Q7.19 11.94 6.88 12.25Q6.57 12.56 6.34 12.91Q6.1 13.27 5.93 13.68Q5.76 14.08 5.68 14.5Q5.63 14.73 5.61 14.96Q5.59 15.16 5.59 15.36Q5.59 15.56 5.49 15.66Q5.39 15.76 5.19 15.76Q4.99 15.76 4.89 15.66Q4.79 15.56 4.79 15.36Q4.79 15.14 4.81 14.93Q4.84 14.63 4.89 14.34L4.89 14.34Q4.99 13.85 5.19 13.37Q5.39 12.89 5.67 12.47L5.67 12.47Q5.95 12.05 6.32 11.68Q6.68 11.32 7.11 11.03L7.11 11.03Q7.53 10.75 8.01 10.55Q8.48 10.36 8.98 10.26Q9.48 10.16 9.99 10.16Q10.51 10.16 11.01 10.26L11.01 10.26L11.01 10.26Q11.51 10.36 11.98 10.55Q12.46 10.75 12.88 11.03L12.88 11.03Q13.31 11.32 13.67 11.68Q14.04 12.05 14.32 12.47Q14.6 12.89 14.8 13.37C15.01 13.87 15.13 14.39 15.18 14.93C15.19 15.07 15.2 15.21 15.2 15.36Q15.2 15.56 15.1 15.66Q15 15.76 14.8 15.76C14.53 15.76 14.4 15.63 14.4 15.36Q14.4 15.16 14.38 14.96Z" fill="#353535" fill-opacity="1.000000" fill-rule="evenodd"/>
		<path id="path" d="M10 9.48C10.37 9.47 10.72 9.39 11.06 9.24C11.4 9.09 11.7 8.87 11.95 8.6C12.21 8.33 12.4 8.03 12.54 7.68C12.67 7.33 12.73 6.97 12.72 6.6C12.73 6.23 12.67 5.87 12.54 5.52C12.41 5.17 12.21 4.86 11.96 4.59C11.7 4.32 11.4 4.11 11.06 3.96C10.72 3.81 10.37 3.72 10 3.71C9.62 3.72 9.27 3.81 8.93 3.96C8.59 4.11 8.29 4.32 8.03 4.59C7.78 4.86 7.58 5.17 7.45 5.52C7.32 5.87 7.26 6.23 7.27 6.6C7.26 6.97 7.32 7.33 7.45 7.68C7.59 8.03 7.78 8.33 8.04 8.6C8.29 8.87 8.59 9.09 8.93 9.24C9.27 9.39 9.62 9.47 10 9.48ZM10 4.52C10.26 4.52 10.51 4.59 10.76 4.7C11 4.81 11.21 4.96 11.39 5.16C11.57 5.35 11.71 5.58 11.8 5.83C11.89 6.08 11.93 6.33 11.92 6.6C11.93 6.86 11.89 7.12 11.8 7.37C11.71 7.62 11.57 7.84 11.39 8.04C11.21 8.23 11 8.39 10.76 8.5C10.51 8.61 10.26 8.67 10 8.68C9.73 8.67 9.48 8.61 9.23 8.5C8.99 8.39 8.78 8.23 8.6 8.04C8.42 7.84 8.28 7.62 8.19 7.37C8.1 7.12 8.06 6.86 8.07 6.6C8.06 6.33 8.1 6.08 8.19 5.83C8.28 5.58 8.42 5.35 8.6 5.16C8.78 4.96 8.99 4.81 9.23 4.7C9.48 4.59 9.73 4.52 10 4.52Z" fill="#353535" fill-opacity="1.000000" fill-rule="nonzero"/>
		<path id="path" d="M7.27 6.63Q7.27 6.89 7.31 7.15L7.31 7.15Q7.35 7.42 7.45 7.68Q7.55 7.94 7.7 8.17L7.7 8.17Q7.84 8.4 8.04 8.6Q8.23 8.81 8.45 8.96Q8.67 9.12 8.93 9.24Q9.18 9.35 9.45 9.41Q9.72 9.47 10 9.48C10.37 9.47 10.72 9.39 11.06 9.24C11.4 9.09 11.7 8.87 11.95 8.6C12.21 8.33 12.4 8.03 12.54 7.68C12.66 7.34 12.73 6.99 12.72 6.63C12.72 6.62 12.72 6.61 12.72 6.6Q12.72 6.58 12.72 6.57Q12.72 6.3 12.68 6.05Q12.64 5.78 12.54 5.52C12.41 5.17 12.21 4.86 11.96 4.59Q11.76 4.39 11.54 4.23L11.54 4.23L11.54 4.23Q11.32 4.07 11.06 3.96Q10.81 3.84 10.54 3.78L10.54 3.78Q10.27 3.72 10 3.71Q9.72 3.72 9.45 3.78Q9.18 3.84 8.93 3.96Q8.67 4.07 8.45 4.23L8.45 4.23Q8.23 4.39 8.03 4.59Q7.84 4.79 7.7 5.03Q7.55 5.26 7.45 5.52Q7.35 5.78 7.31 6.05L7.31 6.05Q7.27 6.3 7.27 6.57Q7.27 6.58 7.27 6.6Q7.27 6.62 7.27 6.63ZM10.02 4.52Q10.2 4.52 10.39 4.57L10.39 4.57Q10.58 4.61 10.76 4.7Q10.94 4.78 11.1 4.9L11.1 4.9Q11.25 5.01 11.39 5.16Q11.53 5.3 11.63 5.47L11.63 5.47Q11.73 5.64 11.8 5.83C11.89 6.08 11.93 6.33 11.92 6.6C11.93 6.86 11.89 7.12 11.8 7.37Q11.73 7.56 11.63 7.73L11.63 7.73Q11.52 7.89 11.39 8.04C11.21 8.23 11 8.39 10.76 8.5C10.52 8.61 10.27 8.67 10.02 8.68C10.01 8.68 10 8.68 10 8.68Q9.98 8.68 9.97 8.68Q9.79 8.67 9.61 8.63Q9.42 8.58 9.23 8.5C8.99 8.39 8.78 8.23 8.6 8.04Q8.47 7.89 8.36 7.73Q8.26 7.56 8.19 7.37Q8.12 7.18 8.09 6.99Q8.06 6.8 8.07 6.6Q8.06 6.4 8.09 6.21L8.09 6.21Q8.12 6.01 8.19 5.83Q8.26 5.64 8.36 5.47L8.36 5.47Q8.46 5.3 8.6 5.16Q8.74 5.01 8.89 4.9L8.89 4.9Q9.05 4.78 9.23 4.7Q9.41 4.61 9.61 4.57Q9.79 4.52 9.97 4.52Q9.98 4.52 10 4.52Q10.01 4.52 10.02 4.52Z" fill="#353535" fill-opacity="1.000000" fill-rule="evenodd"/>
	</g>
</svg>
